<?xml version="1.0" encoding="UTF-8" standalone="no"?>
<!-- Created with Inkscape (http://www.inkscape.org/) -->

<svg
   xmlns:dc="http://purl.org/dc/elements/1.1/"
   xmlns:cc="http://creativecommons.org/ns#"
   xmlns:rdf="http://www.w3.org/1999/02/22-rdf-syntax-ns#"
   xmlns:svg="http://www.w3.org/2000/svg"
   xmlns="http://www.w3.org/2000/svg"
   xmlns:sodipodi="http://sodipodi.sourceforge.net/DTD/sodipodi-0.dtd"
   xmlns:inkscape="http://www.inkscape.org/namespaces/inkscape"
   width="100.34838mm"
   height="53.673779mm"
   viewBox="0 0 100.34838 53.673779"
   version="1.1"
   id="svg8"
   inkscape:version="0.92.2 (5c3e80d, 2017-08-06)"
   sodipodi:docname="drawing.svg">
  <defs
     id="defs2">
    <style
       id="style3699">.\37 9c4a455-3c72-4518-95c2-bf57f6a6d114{fill:#0047a2;}</style>
  </defs>
  <sodipodi:namedview
     id="base"
     pagecolor="#ffffff"
     bordercolor="#666666"
     borderopacity="1.0"
     inkscape:pageopacity="0.0"
     inkscape:pageshadow="2"
     inkscape:zoom="1.979899"
     inkscape:cx="123.56731"
     inkscape:cy="115.87921"
     inkscape:document-units="mm"
     inkscape:current-layer="layer1"
     showgrid="false"
     inkscape:window-width="1920"
     inkscape:window-height="1017"
     inkscape:window-x="-8"
     inkscape:window-y="-8"
     inkscape:window-maximized="1" />
  <metadata
     id="metadata5">
    <rdf:RDF>
      <cc:Work
         rdf:about="">
        <dc:format>image/svg+xml</dc:format>
        <dc:type
           rdf:resource="http://purl.org/dc/dcmitype/StillImage" />
        <dc:title />
      </cc:Work>
    </rdf:RDF>
  </metadata>
  <g
     inkscape:label="Layer 1"
     inkscape:groupmode="layer"
     id="layer1"
     transform="translate(-40.540094,-24.478595)">
    <g
       id="g177"
       transform="matrix(5.1099344,0,0,5.1099344,-262.87952,-95.781401)">
      <path
         id="path63"
         d="m 194.50064,-439.02982 c 0,-0.3 0,-0.4 0.3,-0.8 l 11,-11 c 0.5,-0.4 1.1,-0.5 1.3,-0.5 h 1.9 c 0.3,0 0.6,0.2 0.6,0.6 v 13.9 c 0,0.3 -0.2,0.6 -0.6,0.6 h -9.5 c -0.3,0 -0.4,-0.2 -0.2,-0.4 l 2.9,-2.9 c 0.2,-0.2 0.5,-0.4 0.8,-0.4 h 1.7 c 0.3,0 0.6,-0.2 0.6,-0.5 v -2.8 c 0,-0.1 -0.1,-0.3 -0.3,-0.1 l -6.9,6.9 c -0.2,0.2 -0.6,0.4 -1,0.4 h -2 c -0.3,0 -0.6,-0.3 -0.6,-0.6 z"
         class="st0"
         inkscape:connector-curvature="0"
         style="clip-rule:evenodd;fill:#1a458c;fill-rule:evenodd"
         transform="matrix(0.26458333,0,0,0.26458333,16.429529,144.2204)" />
      <path
         transform="matrix(0.26458333,0,0,0.26458333,16.429529,144.2204)"
         id="path65"
         d="m 193.90064,-435.22982 c -0.3,0 -0.5,-0.2 -0.5,-0.5 v -15 c 0,-0.3 -0.2,-0.5 -0.5,-0.5 h -3.3 c -0.3,0 -0.5,0.2 -0.5,0.5 v 19.3 c -0.1,0.3 0.2,0.5 0.5,0.5 h 19.3 c 0.3,0 0.5,-0.2 0.5,-0.5 v -3.2 c 0,-0.3 -0.2,-0.5 -0.5,-0.5 h -15 z"
         class="st0"
         inkscape:connector-curvature="0"
         style="clip-rule:evenodd;fill:#1a458c;fill-rule:evenodd" />
    </g>
    <g
       id="g188"
       transform="matrix(3.3119533,0,0,3.3119533,-160.96487,24.290768)">
      <path
         id="path61"
         d="m 202.79606,-491.3339 c -0.2,0 -0.4,-0.2 -0.3,-0.4 l 3,-7.5 c 0.1,-0.2 0.4,-0.4 0.6,-0.4 h 2.1 c 0.3,0 0.5,0.2 0.6,0.4 l 3,7.5 c 0.1,0.2 -0.1,0.4 -0.3,0.4 h -2.1 c -0.2,0 -0.5,-0.2 -0.6,-0.4 v -0.3 c -0.1,-0.2 -0.4,-0.4 -0.6,-0.4 h -2.1 c -0.3,0 -0.5,0.2 -0.6,0.4 l -0.1,0.3 c -0.1,0.2 -0.3,0.4 -0.6,0.4 z m 4.5,-5.4 c -0.1,-0.2 -0.2,-0.2 -0.3,0 l -0.7,2.1 c -0.1,0.2 0.1,0.4 0.3,0.4 h 1 c 0.3,0 0.4,-0.2 0.3,-0.4 z"
         class="st0"
         inkscape:connector-curvature="0"
         style="clip-rule:evenodd;fill:#1a458c;fill-rule:evenodd"
         transform="matrix(0.26458333,0,0,0.26458333,16.429529,144.2204)" />
      <path
         id="path67"
         d="m 182.69606,-491.3339 c -0.2,0 -0.4,-0.2 -0.4,-0.5 v -7.5 c 0,-0.3 0.2,-0.5 0.4,-0.5 h 2.1 c 0.3,0 0.5,0.2 0.5,0.5 v 5.5 c 0,0.2 0.2,0.4 0.4,0.4 h 3.3 c 0.2,0 0.4,0.2 0.4,0.4 v 1.1 c 0,0.3 -0.2,0.5 -0.4,0.5 h -6.3 z"
         class="st0"
         inkscape:connector-curvature="0"
         style="clip-rule:evenodd;fill:#1a458c;fill-rule:evenodd"
         transform="matrix(0.26458333,0,0,0.26458333,16.429529,144.2204)" />
      <path
         id="path69"
         d="m 189.99606,-491.3339 c -0.3,0 -0.4,-0.2 -0.3,-0.4 l 3,-7.5 c 0.1,-0.2 0.4,-0.4 0.6,-0.4 h 2.2 c 0.2,0 0.5,0.2 0.6,0.4 l 3,7.5 c 0.1,0.2 0,0.4 -0.3,0.4 h -2.1 c -0.3,0 -0.5,-0.2 -0.6,-0.4 l -0.1,-0.3 c -0.1,-0.2 -0.4,-0.4 -0.6,-0.4 h -2.1 c -0.2,0 -0.5,0.2 -0.6,0.4 l -0.1,0.2 c -0.1,0.2 -0.4,0.4 -0.6,0.4 h -2 z m 4.5,-5.4 c -0.1,-0.2 -0.2,-0.2 -0.3,0 l -0.7,2.1 c -0.1,0.2 0.1,0.4 0.3,0.4 h 1 c 0.2,0 0.4,-0.2 0.3,-0.4 z"
         class="st0"
         inkscape:connector-curvature="0"
         style="clip-rule:evenodd;fill:#1a458c;fill-rule:evenodd"
         transform="matrix(0.26458333,0,0,0.26458333,16.429529,144.2204)" />
      <path
         id="path71"
         d="m 218.39606,-495.5339 c 0.1,0.2 0.3,0.2 0.2,-0.1 l -0.1,-1 c 0,-0.2 0,-0.6 0,-0.9 v -1.8 c 0,-0.3 0.2,-0.5 0.5,-0.5 h 2 c 0.3,0 0.5,0.2 0.5,0.5 v 7.5 c 0,0.3 -0.2,0.5 -0.5,0.5 h -1.9 c -0.3,0 -0.6,-0.2 -0.7,-0.4 l -2.8,-3.8 c -0.1,-0.2 -0.2,-0.2 -0.2,0.1 l 0.1,1 c 0,0.2 0,0.6 0,0.9 v 1.7 c 0,0.3 -0.2,0.5 -0.4,0.5 h -2 c -0.2,0 -0.4,-0.2 -0.4,-0.5 v -7.5 c 0,-0.3 0.2,-0.5 0.4,-0.5 h 1.9 c 0.2,0 0.6,0.2 0.7,0.4 z"
         class="st0"
         inkscape:connector-curvature="0"
         style="clip-rule:evenodd;fill:#1a458c;fill-rule:evenodd"
         transform="matrix(0.26458333,0,0,0.26458333,16.429529,144.2204)" />
      <path
         id="path73"
         d="m 231.99606,-495.5339 c 0,2.9 -2.1,4.5 -4.9,4.5 -2.9,0 -4.9,-1.6 -4.9,-4.5 0,-2.6 2,-4.4 4.9,-4.4 3.4,0 4.9,2.2 4.9,4.4 m -6.7,0 c 0,1.1 0.4,2.4 1.8,2.4 1.3,0 1.8,-1 1.8,-2.4 0,-1.1 -0.5,-2.4 -1.9,-2.3 -1.2,0 -1.7,1.2 -1.7,2.3"
         class="st0"
         inkscape:connector-curvature="0"
         style="clip-rule:evenodd;fill:#1a458c;fill-rule:evenodd"
         transform="matrix(0.26458333,0,0,0.26458333,16.429529,144.2204)" />
      <path
         id="path75"
         d="m 238.69606,-495.5339 c 0.1,0.2 0.3,0.2 0.2,-0.1 l -0.1,-1 c 0,-0.2 0,-0.6 0,-0.9 v -1.8 c 0,-0.3 0.2,-0.5 0.5,-0.5 h 2 c 0.2,0 0.4,0.2 0.4,0.5 v 7.5 c 0,0.3 -0.2,0.5 -0.4,0.5 h -1.9 c -0.2,0 -0.6,-0.2 -0.7,-0.4 l -2.8,-3.8 c -0.1,-0.2 -0.3,-0.2 -0.3,0.1 l 0.1,1 v 0.9 1.7 c 0,0.3 -0.2,0.5 -0.4,0.5 h -2 c -0.2,0 -0.4,-0.2 -0.4,-0.5 v -7.5 c 0,-0.3 0.2,-0.5 0.4,-0.5 h 1.9 c 0.2,0 0.6,0.2 0.7,0.4 z"
         class="st0"
         inkscape:connector-curvature="0"
         style="clip-rule:evenodd;fill:#1a458c;fill-rule:evenodd"
         transform="matrix(0.26458333,0,0,0.26458333,16.429529,144.2204)" />
      <path
         id="path77"
         d="m 243.49606,-491.3339 c -0.2,0 -0.4,-0.2 -0.4,-0.5 v -7.5 c 0,-0.3 0.2,-0.5 0.4,-0.5 h 2.1 c 0.3,0 0.4,0.2 0.4,0.5 v 7.5 c 0,0.3 -0.2,0.5 -0.4,0.5 z"
         class="st0"
         inkscape:connector-curvature="0"
         style="clip-rule:evenodd;fill:#1a458c;fill-rule:evenodd"
         transform="matrix(0.26458333,0,0,0.26458333,16.429529,144.2204)" />
      <path
         id="path79"
         d="m 247.79606,-491.3339 c -0.2,0 -0.4,-0.2 -0.4,-0.5 v -7.5 c 0,-0.3 0.2,-0.5 0.4,-0.5 h 2.8 c 0.2,0 0.5,0.2 0.6,0.4 l 1.4,4.4 c 0.1,0.3 0.2,0.3 0.3,0 l 1.4,-4.4 c 0.1,-0.2 0.4,-0.4 0.6,-0.4 h 2.8 c 0.2,0 0.4,0.2 0.4,0.5 v 7.5 c 0,0.3 -0.2,0.5 -0.4,0.5 h -1.8 c -0.3,0 -0.4,-0.2 -0.4,-0.5 v -1.6 -0.9 -0.4 c 0,-0.2 0.1,-0.6 0.1,-0.9 l 0.1,-0.6 c 0,-0.3 0.1,-0.5 0.1,-0.5 0,0 -0.1,0.2 -0.1,0.4 l -1.4,4.5 c -0.1,0.2 -0.4,0.4 -0.6,0.4 h -1.2 c -0.2,0 -0.5,-0.2 -0.6,-0.4 l -1.4,-4.5 c -0.1,-0.2 -0.1,-0.4 -0.1,-0.4 0,0 0,0.2 0,0.5 v 0.3 c 0,0.2 0.1,0.6 0.1,0.9 v 0.4 c 0,0.3 0,0.7 0,0.9 v 1.9 c 0,0.3 -0.2,0.5 -0.4,0.5 z"
         class="st0"
         inkscape:connector-curvature="0"
         style="clip-rule:evenodd;fill:#1a458c;fill-rule:evenodd"
         transform="matrix(0.26458333,0,0,0.26458333,16.429529,144.2204)" />
      <path
         id="path81"
         d="m 258.79606,-491.3339 c -0.3,0 -0.4,-0.2 -0.3,-0.4 l 3,-7.5 c 0.1,-0.2 0.4,-0.4 0.6,-0.4 h 2.2 c 0.3,0 0.5,0.2 0.6,0.4 l 3,7.5 c 0.1,0.2 0,0.4 -0.3,0.4 h -2.2 c -0.3,0 -0.5,-0.2 -0.6,-0.4 l -0.1,-0.2 c -0.1,-0.2 -0.4,-0.4 -0.6,-0.4 h -2.1 c -0.2,0 -0.5,0.2 -0.6,0.4 l -0.1,0.2 c -0.1,0.2 -0.4,0.4 -0.6,0.4 z m 4.5,-5.4 c -0.1,-0.2 -0.2,-0.2 -0.3,0 l -0.7,2.1 c -0.1,0.2 0.1,0.4 0.3,0.4 h 1 c 0.3,0 0.4,-0.2 0.3,-0.4 z"
         class="st0"
         inkscape:connector-curvature="0"
         style="clip-rule:evenodd;fill:#1a458c;fill-rule:evenodd"
         transform="matrix(0.26458333,0,0,0.26458333,16.429529,144.2204)" />
    </g>
  </g>
  <style
     id="style59"
     type="text/css">
	.st0{fill-rule:evenodd;clip-rule:evenodd;fill:#1A458C;}
</style>
</svg>
